<?xml version="1.0" encoding="UTF-8" standalone="no"?>
<!DOCTYPE svg PUBLIC "-//W3C//DTD SVG 1.1//EN" "http://www.w3.org/Graphics/SVG/1.1/DTD/svg11.dtd">
<svg xmlns="http://www.w3.org/2000/svg" version="1.1" viewBox="0 0 1140 1078">
<path fill="#E1D4BC" d="
  M 753.13 329.22
  C 643.84 222.71 467.85 217.31 361.10 332.93
  Q 359.16 335.02 356.57 333.84
  C 351.78 331.64 353.78 327.94 356.47 325.06
  C 410.82 266.80 488.01 235.36 567.74 239.35
  C 702.95 246.12 817.94 343.53 839.35 478.78
  A 0.29 0.28 -23.4 0 0 839.81 478.96
  C 843.37 476.11 847.05 472.18 852.18 474.32
  C 862.36 478.57 861.49 490.96 855.54 498.56
  Q 850.84 504.55 842.45 507.60
  A 0.70 0.70 0.0 0 0 841.99 508.27
  C 842.19 523.08 842.26 534.37 840.35 547.21
  C 838.86 557.25 835.82 567.93 833.38 578.19
  C 831.67 585.41 823.27 582.97 825.13 575.22
  C 828.05 563.12 831.54 550.71 832.59 538.75
  Q 834.72 514.27 831.94 489.78
  C 831.81 488.66 831.17 488.23 830.11 488.20
  A 0.78 0.77 73.4 0 1 829.46 487.84
  L 829.28 487.56
  A 0.32 0.32 0.0 0 1 829.42 487.09
  Q 831.53 486.20 831.29 484.25
  C 823.88 426.06 795.02 370.04 753.13 329.22
  Z"
/>
<path fill="#E1D4BC" d="
  M 564.76 259.69
  C 565.34 255.69 564.19 249.18 570.04 249.24
  Q 572.65 249.27 572.72 251.88
  C 572.91 259.15 571.44 266.23 570.75 273.48
  A 1.63 1.60 68.4 0 1 570.38 274.36
  C 564.83 280.76 559.30 266.97 557.76 263.57
  Q 557.26 262.46 557.27 263.68
  L 557.33 273.92
  A 1.92 1.87 61.0 0 1 557.05 274.95
  Q 555.41 277.63 552.37 276.68
  Q 550.15 275.98 550.06 273.65
  Q 549.68 263.70 550.83 253.88
  C 551.35 249.38 554.66 247.54 558.13 250.84
  Q 562.13 254.64 564.48 259.73
  Q 564.69 260.18 564.76 259.69
  Z"
/>
<path fill="#E1D4BC" d="
  M 490.64 280.86
  C 486.60 278.54 485.75 274.20 487.57 270.45
  C 491.17 263.07 503.95 266.09 503.36 274.23
  C 503.03 278.72 496.95 281.56 493.16 281.54
  Q 491.81 281.53 490.64 280.86
  Z"
/>
<path fill="#E1D4BC" d="
  M 614.98 280.59
  Q 610.87 277.29 611.70 272.83
  C 613.56 262.90 628.39 265.08 628.25 273.73
  C 628.17 278.66 622.45 281.12 618.24 281.56
  Q 616.41 281.74 614.98 280.59
  Z"
/>
<path fill="#E1D4BC" d="
  M 450.56 315.74
  Q 474.68 356.56 498.58 397.51
  C 502.33 403.93 494.71 408.12 490.87 401.57
  Q 462.21 352.76 433.62 303.91
  C 431.82 300.83 432.16 296.93 436.12 296.32
  Q 437.80 296.06 439.21 297.02
  L 534.28 361.94
  A 0.38 0.38 0.0 0 0 534.86 361.73
  Q 545.67 323.73 556.30 285.75
  C 557.25 282.34 557.40 279.64 561.68 279.20
  Q 564.81 278.88 565.54 281.94
  L 585.75 366.77
  A 0.35 0.34 -23.2 0 0 586.28 366.98
  L 681.65 303.87
  Q 683.09 302.92 684.64 303.66
  C 688.63 305.54 688.14 308.63 686.09 311.94
  Q 656.92 359.07 626.45 408.29
  A 0.50 0.50 0.0 0 0 626.78 409.05
  L 733.06 429.99
  Q 735.46 430.47 735.69 432.90
  C 736.18 437.97 733.32 438.14 729.49 438.92
  Q 688.97 447.21 648.34 455.45
  A 0.50 0.50 0.0 0 0 648.06 456.26
  C 649.90 458.45 653.68 462.47 653.73 465.31
  C 653.81 470.26 647.79 470.29 645.11 466.65
  Q 639.60 459.22 632.92 452.84
  A 0.39 0.39 0.0 0 0 632.31 452.94
  Q 618.91 476.97 615.08 505.05
  C 613.19 518.89 616.01 537.63 635.00 534.71
  C 639.21 534.07 643.41 531.75 647.29 529.63
  Q 650.00 528.16 650.71 531.16
  Q 653.54 543.16 654.69 555.44
  Q 654.96 558.26 652.22 557.57
  Q 625.48 550.90 599.31 543.60
  C 592.80 541.78 593.96 538.22 594.24 531.97
  Q 595.58 502.94 601.86 474.60
  C 604.90 460.84 606.65 452.29 610.53 441.49
  Q 611.18 439.67 613.05 440.16
  L 617.05 441.21
  Q 620.09 442.00 617.39 440.40
  C 598.73 429.33 580.17 425.76 558.76 424.33
  Q 558.50 424.31 558.25 424.41
  L 557.96 424.53
  Q 557.86 424.57 557.96 424.60
  Q 572.65 428.71 587.34 432.83
  Q 589.51 433.44 591.53 434.64
  A 1.78 1.78 0.0 0 1 592.21 436.98
  Q 588.16 444.89 582.62 451.84
  Q 581.22 453.59 579.73 451.92
  Q 571.58 442.77 559.51 441.01
  C 549.13 439.50 542.86 449.74 545.24 458.99
  C 546.37 463.41 553.54 462.37 558.34 461.81
  C 564.33 461.11 571.98 461.34 576.87 465.46
  A 1.25 1.25 0.0 0 1 577.21 466.91
  Q 573.32 475.95 568.21 484.37
  A 1.44 1.44 0.0 0 1 566.13 484.78
  C 538.80 464.73 529.11 505.95 553.75 514.07
  C 561.13 516.51 568.68 514.48 575.65 512.20
  Q 577.62 511.56 578.38 513.49
  Q 582.89 524.81 585.62 536.66
  Q 586.40 540.03 583.07 539.08
  Q 552.66 530.45 522.56 521.94
  C 520.06 521.24 519.44 518.52 519.51 516.00
  Q 520.27 487.84 525.90 460.28
  C 528.93 445.46 531.47 433.45 535.92 420.34
  Q 536.55 418.47 538.45 419.02
  L 544.85 420.84
  A 0.40 0.39 -82.5 0 0 545.35 420.45
  C 545.30 417.01 547.31 415.94 550.52 415.84
  Q 578.86 414.98 605.49 424.53
  A 0.65 0.65 0.0 0 0 606.26 424.27
  L 668.76 323.30
  Q 669.11 322.74 668.56 323.10
  Q 616.92 357.17 565.40 391.31
  C 563.25 392.74 561.02 392.69 559.05 391.22
  C 547.90 382.85 536.84 374.38 525.35 366.49
  Q 488.12 340.91 450.72 315.59
  Q 450.31 315.31 450.56 315.74
  Z
  M 542.37 367.52
  A 0.30 0.30 0.0 0 0 542.47 367.84
  L 562.26 382.66
  A 0.30 0.30 0.0 0 0 562.61 382.67
  L 577.96 372.47
  A 0.30 0.30 0.0 0 0 578.08 372.15
  L 561.38 302.00
  A 0.30 0.30 0.0 0 0 560.80 301.99
  L 542.37 367.52
  Z
  M 614.39 428.68
  Q 628.88 436.14 640.36 447.71
  A 1.03 1.03 0.0 0 0 641.30 448.00
  L 708.00 434.47
  Q 709.38 434.19 708.00 433.92
  L 622.12 416.98
  A 1.34 1.33 -68.2 0 0 620.73 417.58
  L 614.21 428.03
  A 0.46 0.46 0.0 0 0 614.39 428.68
  Z"
/>
<path fill="#E1D4BC" d="
  M 478.49 313.61
  C 474.97 310.46 476.52 307.11 480.49 305.64
  Q 505.28 296.49 532.19 293.89
  C 535.95 293.52 541.07 293.11 539.94 299.00
  Q 539.39 301.86 536.49 302.10
  Q 508.41 304.50 482.02 314.28
  Q 480.05 315.01 478.49 313.61
  Z"
/>
<path fill="#E1D4BC" d="
  M 577.44 301.40
  A 1.51 1.49 16.9 0 1 576.72 300.07
  C 576.85 295.03 578.43 293.94 583.39 294.50
  Q 613.38 297.88 641.68 308.28
  C 645.19 309.57 646.70 311.99 644.69 315.44
  Q 643.13 318.14 640.22 317.04
  Q 611.33 306.18 580.63 302.87
  C 579.29 302.72 578.61 302.11 577.44 301.40
  Z"
/>
<path fill="#E1D4BC" d="
  M 558.15 374.01
  C 553.38 369.89 548.04 364.34 550.04 358.17
  Q 554.20 345.36 558.09 332.46
  A 0.71 0.70 -82.0 0 1 558.75 331.96
  Q 559.60 331.95 559.59 332.75
  Q 559.25 353.61 559.29 373.48
  Q 559.30 375.00 558.15 374.01
  Z"
/>
<path fill="#E1D4BC" d="
  M 389.53 386.49
  Q 392.82 384.45 396.70 383.94
  A 1.59 1.54 -33.6 0 1 397.67 384.12
  C 412.94 392.78 422.30 414.13 425.47 430.87
  Q 430.95 459.89 424.49 488.76
  Q 423.86 491.57 422.46 494.18
  Q 421.03 496.86 418.04 496.29
  L 399.01 492.69
  Q 395.80 492.08 397.47 489.28
  C 401.79 482.03 417.95 458.37 402.57 453.45
  C 394.17 450.75 377.96 449.44 371.30 456.67
  C 363.84 464.78 371.07 479.20 374.56 487.60
  A 0.85 0.85 0.0 0 1 373.66 488.77
  Q 366.24 487.81 358.74 486.96
  Q 353.47 486.36 352.66 486.03
  C 348.18 484.22 347.52 477.37 347.36 473.44
  C 346.20 444.24 354.65 416.55 375.92 395.89
  A 0.62 0.62 0.0 0 0 376.02 395.13
  Q 374.55 392.68 376.03 390.30
  Q 397.17 356.44 429.48 333.02
  Q 431.18 331.79 432.93 332.96
  C 436.99 335.67 435.98 339.10 432.47 341.69
  Q 407.17 360.35 389.33 386.29
  Q 388.95 386.85 389.53 386.49
  Z
  M 374.77 434.36
  A 3.64 3.63 57.0 0 0 376.96 434.83
  Q 390.31 433.47 403.50 435.54
  C 407.64 436.19 408.16 432.93 407.69 429.73
  Q 405.95 417.85 398.56 407.78
  Q 396.83 405.42 393.98 406.06
  C 385.54 407.98 376.48 422.70 373.79 430.13
  C 373.19 431.80 373.16 433.42 374.77 434.36
  Z"
/>
<path fill="#E1D4BC" d="
  M 694.32 336.33
  C 740.30 368.84 771.51 419.15 783.56 473.77
  A 0.71 0.71 0.0 0 0 784.24 474.33
  C 792.46 474.53 802.05 476.08 808.32 481.23
  C 821.27 491.86 816.35 511.58 804.05 521.08
  Q 799.97 524.23 795.25 527.42
  Q 793.61 528.53 794.73 530.16
  C 806.00 546.48 814.24 558.46 813.17 579.25
  Q 813.07 581.19 811.13 581.12
  L 791.53 580.40
  Q 789.29 580.32 789.32 578.09
  C 789.45 566.01 786.10 549.34 778.11 539.36
  Q 776.47 537.31 773.86 537.62
  C 766.39 538.50 760.54 544.10 761.00 552.25
  Q 761.64 563.60 763.59 575.43
  Q 764.06 578.27 761.21 577.91
  L 743.52 575.69
  Q 740.98 575.37 740.50 572.85
  Q 739.26 566.33 739.41 559.75
  Q 739.95 536.46 742.97 508.25
  C 744.18 496.89 745.46 481.96 750.70 472.72
  Q 751.84 470.72 754.13 470.99
  L 774.04 473.37
  A 0.42 0.41 86.6 0 0 774.49 472.86
  C 762.06 420.20 731.81 373.53 687.64 342.19
  Q 686.12 341.11 686.32 339.26
  C 686.85 334.16 690.66 333.74 694.32 336.33
  Z
  M 764.75 520.60
  Q 766.01 521.70 767.64 521.30
  C 776.60 519.07 790.73 512.76 794.17 503.67
  C 796.87 496.51 791.59 491.61 785.06 490.01
  C 764.74 485.05 764.01 501.62 762.97 515.97
  Q 762.76 518.85 764.75 520.60
  Z"
/>
<path fill="#E1D4BC" d="
  M 346.19 722.06
  C 299.30 671.40 272.61 607.41 271.95 538.52
  C 271.77 519.80 273.22 502.43 278.62 484.79
  A 0.64 0.64 0.0 0 0 277.97 483.96
  L 269.37 484.54
  Q 266.23 484.75 265.78 481.64
  C 263.89 468.61 267.60 386.18 278.10 380.00
  Q 279.12 379.40 281.64 379.24
  Q 299.44 378.15 317.25 378.67
  A 0.78 0.77 -74.9 0 0 317.97 378.25
  C 321.10 372.36 339.58 340.14 345.54 340.12
  Q 348.60 340.11 349.96 343.84
  A 2.27 2.24 54.5 0 1 349.61 346.01
  Q 337.02 361.74 327.31 379.39
  A 1.09 1.09 0.0 0 0 327.92 380.95
  C 344.39 386.32 345.14 406.69 336.09 418.62
  C 332.52 423.33 326.68 427.34 321.43 430.78
  Q 319.57 432.00 320.90 433.79
  C 332.41 449.29 340.42 463.45 339.16 483.33
  A 1.60 1.60 0.0 0 1 337.47 484.83
  L 317.22 483.78
  Q 315.25 483.68 315.29 481.71
  C 315.49 472.29 311.81 447.37 301.99 442.37
  A 1.50 1.46 52.8 0 0 301.05 442.23
  C 293.35 443.62 286.78 449.10 286.93 457.31
  Q 287.06 464.40 288.06 471.35
  C 288.26 472.75 289.25 474.05 289.21 475.43
  Q 289.09 478.76 289.56 482.07
  A 0.89 0.88 66.3 0 1 289.24 482.90
  L 288.29 483.65
  A 1.69 1.68 -11.1 0 0 287.75 484.45
  Q 282.01 502.98 281.08 517.82
  C 275.72 603.09 311.14 683.11 375.67 738.40
  A 1.19 1.17 -26.8 0 0 376.56 738.68
  Q 403.35 736.15 429.21 743.40
  C 432.12 744.22 437.66 746.14 439.79 749.29
  C 442.51 753.30 436.84 763.75 434.37 767.82
  Q 433.29 769.60 431.72 768.24
  C 426.55 763.77 424.68 759.60 417.28 757.97
  Q 415.15 757.50 413.85 759.26
  C 410.29 764.09 409.29 771.19 408.74 777.00
  Q 405.57 810.43 414.68 842.52
  Q 415.67 846.00 412.06 845.73
  L 392.84 844.31
  A 2.16 2.14 -11.4 0 1 391.09 843.16
  Q 388.68 838.52 388.16 833.01
  C 385.87 808.94 388.50 786.98 392.76 763.38
  A 0.91 0.91 0.0 0 0 392.40 762.47
  L 385.08 757.14
  A 0.94 0.92 -37.4 0 0 384.19 757.03
  Q 374.83 760.79 366.28 766.00
  C 365.50 766.47 363.46 767.07 362.93 766.76
  Q 361.46 765.93 361.66 764.25
  Q 362.96 753.16 366.45 742.54
  A 0.77 0.76 29.9 0 0 366.22 741.71
  Q 357.29 734.06 346.19 722.06
  Z
  M 290.38 426.45
  Q 291.88 427.42 293.56 426.82
  Q 305.26 422.62 314.03 415.29
  C 327.79 403.80 318.79 391.28 303.22 394.01
  C 293.86 395.66 291.77 402.01 289.98 410.91
  C 289.38 413.94 287.49 424.58 290.38 426.45
  Z"
/>
<path fill="#E1D4BC" d="
  M 369.34 354.25
  Q 368.70 353.78 368.36 353.07
  Q 366.16 348.54 368.42 344.81
  C 374.50 334.79 390.40 346.18 381.36 353.31
  C 377.57 356.29 373.64 357.42 369.34 354.25
  Z"
/>
<path fill="#E1D4BC" d="
  M 502.26 392.89
  C 499.11 392.14 470.34 344.92 471.10 343.24
  A 0.59 0.59 0.0 0 1 471.95 342.98
  Q 497.70 359.01 502.79 389.07
  Q 503.09 390.88 502.97 392.37
  A 0.58 0.58 0.0 0 1 502.26 392.89
  Z"
/>
<path fill="#E1D4BC" d="
  M 737.69 357.31
  C 733.01 354.54 733.65 347.43 737.39 344.66
  C 742.18 341.12 748.25 343.25 750.70 348.62
  Q 751.96 351.36 750.12 353.76
  C 747.65 357.00 741.73 359.70 737.69 357.31
  Z"
/>
<path fill="#E1D4BC" d="
  M 577.55 395.71
  A 1.61 1.59 33.3 0 1 577.17 393.95
  Q 578.92 389.65 582.30 387.08
  Q 611.23 365.05 641.75 345.16
  A 0.84 0.84 0.0 0 1 643.00 345.56
  Q 643.27 346.29 642.47 347.23
  Q 626.60 365.82 610.22 383.95
  Q 598.15 397.31 580.02 397.10
  C 578.80 397.08 578.35 396.47 577.55 395.71
  Z"
/>
<path fill="#E1D4BC" d="
  M 262.27 386.70
  Q 264.89 388.19 264.08 391.09
  Q 261.43 400.53 255.52 408.31
  A 0.96 0.96 0.0 0 1 254.05 408.37
  C 249.39 403.20 239.40 394.80 234.33 404.81
  Q 230.93 411.53 229.23 421.80
  C 225.98 441.43 225.11 464.96 229.91 483.83
  Q 231.24 489.09 226.26 489.80
  Q 216.90 491.14 207.68 493.50
  A 1.74 1.74 0.0 0 1 205.69 492.58
  Q 204.04 489.16 203.93 485.18
  C 203.25 461.01 206.96 438.47 213.26 415.22
  C 213.98 412.56 214.22 409.87 214.50 407.17
  Q 214.75 404.74 212.45 405.57
  C 202.54 409.15 192.77 419.03 185.31 426.31
  Q 183.92 427.66 183.34 427.69
  Q 181.24 427.80 181.61 425.72
  Q 183.88 412.90 188.68 400.77
  Q 189.32 399.16 190.80 398.24
  C 208.95 387.08 228.88 381.42 250.06 382.90
  Q 256.41 383.35 262.27 386.70
  Z"
/>
<path fill="#E1D4BC" d="
  M 475.92 510.95
  C 471.56 512.40 468.36 509.78 465.70 506.76
  C 441.86 479.84 435.68 446.07 441.66 411.16
  C 442.61 405.60 443.18 401.84 445.48 397.82
  Q 446.74 395.62 449.21 396.15
  C 454.91 397.38 460.62 399.00 466.29 400.04
  C 469.25 400.59 469.79 402.53 468.52 405.14
  C 456.39 430.00 456.21 459.09 472.01 482.47
  Q 473.90 485.27 477.17 483.69
  C 488.41 478.28 494.93 463.13 496.53 451.50
  Q 499.37 430.90 491.75 409.73
  C 490.98 407.60 493.04 406.85 494.78 407.29
  Q 501.73 409.03 508.65 410.88
  C 513.09 412.06 514.29 414.58 514.95 418.82
  C 519.96 451.16 512.13 482.42 487.01 504.17
  C 484.09 506.70 479.07 509.90 475.92 510.95
  Z"
/>
<path fill="#E1D4BC" d="
  M 792.23 438.65
  C 796.02 438.24 801.39 437.33 800.22 443.56
  Q 799.87 445.42 798.07 446.04
  C 791.94 448.15 784.39 447.10 783.26 439.51
  C 782.77 436.18 783.60 426.19 784.51 422.65
  C 786.62 414.42 795.94 413.54 802.46 416.33
  Q 804.67 417.27 804.55 419.67
  C 804.11 428.75 792.97 419.78 792.71 425.44
  A 0.61 0.60 5.7 0 0 793.23 426.07
  L 797.97 426.76
  Q 799.93 427.04 800.38 428.97
  C 801.92 435.62 796.69 435.01 792.46 434.57
  A 0.54 0.54 0.0 0 0 791.87 435.08
  L 791.71 438.16
  A 0.47 0.47 0.0 0 0 792.23 438.65
  Z"
/>
<path fill="#E1D4BC" d="
  M 640.33 435.09
  C 633.18 436.77 627.61 433.71 626.72 426.13
  Q 626.34 422.85 629.56 423.59
  Q 645.02 427.12 660.73 429.08
  Q 661.32 429.15 660.95 429.62
  C 659.88 430.97 643.16 434.43 640.33 435.09
  Z"
/>
<path fill="#E1D4BC" d="
  M 665.24 560.35
  Q 662.70 558.26 662.95 554.74
  C 663.69 544.09 664.12 532.93 665.55 522.79
  Q 669.21 496.88 675.61 471.47
  Q 677.38 464.46 680.06 458.21
  A 1.23 1.22 18.0 0 1 681.46 457.50
  Q 707.44 463.39 733.68 467.89
  Q 737.61 468.57 735.73 472.08
  Q 731.53 479.95 726.31 487.08
  A 1.50 1.48 37.9 0 1 724.15 487.34
  C 719.04 483.09 714.61 479.98 707.01 478.47
  C 686.63 474.39 684.42 501.73 693.74 500.05
  C 702.28 498.51 711.35 496.59 719.58 500.00
  Q 721.70 500.88 720.81 503.00
  Q 716.99 512.04 711.98 520.42
  A 1.53 1.52 -58.6 0 1 709.87 520.94
  C 682.55 504.13 673.88 543.03 694.88 550.27
  C 704.23 553.50 711.77 550.56 720.17 547.19
  A 1.52 1.52 0.0 0 1 722.13 548.01
  Q 726.87 559.17 729.70 570.97
  Q 730.36 573.75 727.54 573.28
  Q 696.84 568.14 666.54 561.00
  Q 665.81 560.83 665.24 560.35
  Z"
/>
<path fill="#E1D4BC" d="
  M 919.77 538.27
  C 920.49 521.06 873.15 535.44 873.07 504.24
  C 872.98 474.56 905.08 462.42 929.51 466.24
  C 933.03 466.79 936.06 468.03 938.90 469.94
  Q 940.83 471.23 940.05 473.41
  Q 937.10 481.73 930.93 488.68
  C 928.45 491.48 926.81 490.36 924.34 488.20
  C 906.58 472.69 878.46 499.29 899.94 505.81
  C 916.09 510.71 945.10 507.99 940.87 535.09
  C 937.25 558.35 917.08 574.57 893.91 576.41
  C 867.48 578.52 856.51 552.23 873.82 533.69
  Q 875.37 532.03 875.70 534.28
  C 877.32 545.44 880.34 554.67 893.56 554.99
  C 903.24 555.22 919.29 549.90 919.77 538.27
  Z"
/>
<path fill="#E1D4BC" d="
  M 420.13 718.01
  C 361.47 677.01 328.42 608.26 324.41 537.82
  C 324.18 533.91 322.80 525.77 329.99 527.58
  Q 332.60 528.24 332.68 530.93
  C 334.91 603.04 367.79 669.66 426.49 712.06
  Q 427.87 713.05 427.71 714.74
  C 427.29 719.29 423.69 720.50 420.13 718.01
  Z"
/>
<path fill="#E1D4BC" d="
  M 312.46 537.77
  C 311.10 546.58 298.78 546.40 296.25 538.26
  C 293.46 529.29 314.63 523.73 312.46 537.77
  Z"
/>
<path fill="#E1D4BC" d="
  M 610.69 588.46
  C 604.68 593.12 599.46 584.46 606.65 579.26
  C 621.37 568.61 640.23 573.90 654.07 583.70
  Q 666.70 592.64 681.23 598.05
  C 692.06 602.08 703.39 598.62 711.38 590.82
  C 716.63 585.70 724.43 587.11 729.75 590.92
  C 735.13 594.77 736.39 600.92 734.56 607.00
  C 729.51 623.78 700.12 626.31 686.81 624.13
  C 673.20 621.90 659.25 612.00 649.39 602.53
  C 639.90 593.42 624.79 577.53 610.69 588.46
  Z"
/>
<path fill="#E1D4BC" d="
  M 652.95 696.19
  C 645.04 694.17 639.86 687.84 637.09 680.52
  C 633.67 671.47 638.23 661.17 646.04 655.87
  C 650.60 652.78 656.37 652.83 661.70 653.24
  A 1.24 1.20 25.6 0 0 662.57 652.95
  Q 667.64 648.56 673.75 646.29
  Q 677.23 645.00 682.39 644.96
  Q 700.66 644.81 718.86 645.52
  A 0.83 0.81 14.9 0 0 719.62 645.09
  Q 727.09 631.01 740.78 622.82
  A 1.10 1.09 -12.4 0 0 741.31 622.00
  C 742.82 609.60 755.97 612.48 764.43 611.95
  C 767.68 611.75 771.48 608.65 774.51 607.23
  C 779.01 605.13 786.88 605.43 791.92 605.53
  Q 835.34 606.43 878.61 610.19
  Q 888.36 611.03 893.30 612.95
  C 915.59 621.62 923.95 650.32 914.68 670.77
  C 907.66 686.25 894.17 694.38 877.00 693.16
  Q 846.61 691.01 816.94 683.65
  A 0.63 0.63 0.0 0 0 816.17 684.38
  C 821.10 711.59 802.00 734.86 773.69 732.65
  C 745.59 730.45 717.89 724.42 690.73 717.05
  A 1.03 1.01 -54.6 0 0 689.84 717.21
  C 687.88 718.64 685.13 721.20 682.72 721.12
  C 678.73 721.00 677.73 717.42 679.04 714.25
  A 0.44 0.44 0.0 0 0 678.76 713.66
  Q 671.63 711.44 664.59 709.26
  C 659.47 707.67 655.67 701.40 653.64 696.78
  A 1.08 1.06 84.9 0 0 652.95 696.19
  Z
  M 770.94 618.10
  Q 786.78 619.35 802.29 622.82
  Q 807.31 623.94 811.90 626.22
  A 0.43 0.43 0.0 0 1 812.00 626.92
  Q 799.73 638.26 798.67 655.07
  A 1.11 1.11 0.0 0 0 799.11 656.03
  Q 809.59 663.88 814.19 676.15
  A 0.97 0.95 86.2 0 0 814.85 676.74
  Q 835.76 681.64 856.99 684.89
  Q 857.43 684.96 857.11 684.65
  C 837.76 665.36 835.35 632.19 859.59 615.74
  Q 860.01 615.46 859.51 615.42
  C 836.10 613.50 817.55 613.06 799.41 612.27
  C 792.12 611.96 784.19 611.75 778.80 612.77
  Q 774.45 613.60 770.77 617.68
  Q 770.43 618.06 770.94 618.10
  Z
  M 880.93 617.19
  C 907.47 624.24 914.30 662.42 897.64 681.82
  Q 897.31 682.20 897.72 681.92
  C 917.73 668.23 915.60 636.75 897.36 622.89
  Q 890.24 617.48 880.94 617.08
  Q 880.44 617.06 880.93 617.19
  Z
  M 732.92 642.41
  L 751.04 644.41
  A 0.94 0.94 0.0 0 0 751.90 644.03
  C 753.57 641.73 746.66 639.63 744.67 639.12
  C 737.77 637.35 746.39 629.20 744.37 628.00
  A 1.64 1.63 42.7 0 0 742.58 628.07
  Q 736.38 632.50 731.27 637.97
  Q 727.67 641.83 732.92 642.41
  Z
  M 786.69 640.06
  Q 792.39 642.85 794.56 647.47
  C 794.60 647.54 794.88 647.72 794.96 647.73
  A 0.31 0.31 0.0 0 0 795.30 647.45
  Q 796.41 637.11 803.95 630.00
  A 0.35 0.34 -56.5 0 0 803.84 629.43
  C 798.52 627.43 791.54 629.52 787.13 632.69
  C 784.61 634.50 783.23 638.38 786.69 640.06
  Z
  M 898.0663 641.4620
  A 5.12 1.41 69.7 0 0 897.6124 636.1708
  A 5.12 1.41 69.7 0 0 894.5137 631.8580
  A 5.12 1.41 69.7 0 0 894.9676 637.1492
  A 5.12 1.41 69.7 0 0 898.0663 641.4620
  Z
  M 898.62 646.21
  C 897.50 645.83 896.98 646.71 896.98 647.70
  C 897.00 665.41 885.75 671.63 871.48 679.87
  Q 869.29 681.13 871.81 680.94
  C 875.92 680.62 880.91 680.16 884.64 678.92
  C 898.76 674.24 902.12 660.97 899.53 647.25
  A 1.35 1.34 4.1 0 0 898.62 646.21
  Z
  M 755.74 723.89
  C 736.41 705.18 733.63 670.78 758.50 654.93
  Q 758.80 654.74 758.45 654.70
  Q 719.54 651.22 680.46 651.68
  C 675.25 651.74 669.64 655.78 665.82 659.04
  C 653.09 669.90 654.44 688.90 664.22 700.94
  Q 665.44 702.45 667.46 703.10
  Q 710.73 717.13 755.59 724.19
  Q 756.14 724.28 755.74 723.89
  Z
  M 645.83 672.77
  C 650.31 674.50 650.59 667.95 650.95 665.22
  Q 651.33 662.32 653.71 660.62
  L 656.90 658.34
  A 0.88 0.86 65.7 0 0 657.24 657.41
  C 656.49 654.42 650.15 657.23 648.67 658.53
  Q 643.74 662.85 643.71 669.67
  Q 643.70 671.95 645.83 672.77
  Z
  M 779.46 656.57
  C 786.12 657.56 792.62 663.05 796.42 668.31
  C 807.35 683.40 809.54 706.26 796.11 720.82
  Q 795.75 721.22 796.28 721.15
  Q 796.60 721.11 796.75 721.00
  C 820.24 702.11 812.14 660.56 780.77 656.18
  Q 780.06 656.08 779.44 656.31
  Q 778.93 656.49 779.46 656.57
  Z
  M 796.46 680.06
  Q 796.59 674.42 793.10 670.05
  A 0.58 0.57 50.0 0 0 792.27 669.97
  C 790.89 671.18 794.83 679.00 795.56 680.28
  Q 796.42 681.79 796.46 680.06
  Z
  M 795.95 685.85
  Q 795.49 689.09 794.99 692.28
  C 792.69 706.90 781.86 712.33 769.80 719.29
  Q 769.54 719.44 769.48 719.66
  A 0.39 0.39 0.0 0 0 769.87 720.14
  C 782.59 719.69 792.87 716.96 797.35 703.99
  C 798.78 699.86 800.43 688.97 797.26 685.45
  Q 796.18 684.25 795.95 685.85
  Z"
/>
<path fill="#E1D4BC" d="
  M 396.95 665.05
  C 385.38 658.84 370.69 647.12 371.78 632.61
  C 372.59 621.83 378.71 615.33 389.96 614.22
  C 398.00 613.43 404.09 615.51 408.07 622.42
  C 413.68 632.17 423.41 640.16 434.60 642.34
  Q 439.94 643.38 448.92 642.40
  Q 467.55 640.38 487.06 633.62
  C 508.66 626.14 535.30 627.97 549.78 648.19
  Q 551.11 650.05 551.15 652.33
  C 551.28 658.73 547.20 660.59 541.55 659.11
  A 1.30 1.29 81.1 0 1 540.80 658.56
  Q 535.63 650.32 527.13 648.04
  C 516.01 645.06 498.81 651.79 488.93 657.67
  C 471.80 667.85 449.92 676.08 429.98 674.65
  C 418.69 673.83 406.69 670.28 396.95 665.05
  Z"
/>
<path fill="#E1D4BC" d="
  M 314.69 630.06
  C 309.60 626.77 314.16 618.96 317.66 616.71
  C 324.61 612.24 331.63 622.34 326.88 628.10
  Q 321.59 634.52 314.69 630.06
  Z"
/>
<path fill="#E1D4BC" d="
  M 277.53 706.35
  C 279.75 703.02 282.18 704.35 284.63 706.52
  C 300.42 720.49 315.40 736.30 326.58 754.26
  A 1.25 1.25 0.0 0 1 326.58 755.58
  L 320.47 765.19
  Q 320.12 765.74 320.75 765.55
  C 325.30 764.16 329.02 760.01 332.62 766.11
  C 339.48 777.74 345.80 792.49 346.04 806.49
  C 346.08 808.54 344.84 811.10 342.72 811.05
  Q 339.66 810.98 339.01 807.99
  C 336.54 796.62 333.52 782.34 327.40 772.47
  A 0.56 0.55 -33.4 0 0 326.60 772.31
  Q 321.99 775.66 317.38 778.94
  C 315.23 780.48 313.39 780.32 311.23 779.19
  A 1.43 1.41 2.1 0 1 310.59 778.51
  C 307.68 771.94 312.07 762.31 316.47 757.39
  A 0.71 0.69 49.2 0 0 316.52 756.53
  Q 301.10 733.77 281.41 714.57
  A 0.64 0.63 49.6 0 0 280.60 714.50
  C 277.73 716.52 271.65 722.61 268.14 721.49
  Q 265.57 720.67 266.12 718.03
  L 268.90 704.66
  A 0.89 0.88 27.7 0 0 268.64 703.84
  Q 252.05 688.03 230.55 680.08
  A 0.84 0.83 -58.4 0 0 229.65 680.30
  Q 225.73 684.53 222.43 689.12
  C 220.53 691.76 218.81 691.72 215.97 690.79
  Q 213.91 690.11 214.20 687.97
  L 216.01 674.62
  A 0.62 0.61 12.9 0 0 215.58 673.95
  Q 196.82 667.86 177.17 669.74
  Q 175.81 669.87 176.66 670.94
  L 199.62 699.59
  A 1.11 1.10 -19.3 0 0 200.48 700.00
  L 223.29 700.00
  Q 226.11 700.01 226.26 702.82
  C 226.51 707.48 216.82 713.89 213.40 716.75
  A 0.54 0.54 0.0 0 0 213.31 717.47
  L 242.69 759.57
  A 0.86 0.86 0.0 0 0 243.51 759.93
  Q 250.38 759.09 257.12 758.26
  C 262.20 757.63 264.54 760.86 261.09 764.97
  Q 257.07 769.75 253.31 774.77
  A 0.75 0.75 0.0 0 0 253.28 775.61
  Q 259.79 785.78 264.39 796.83
  C 271.29 813.43 279.93 834.60 294.70 846.07
  A 1.32 1.30 14.8 0 1 295.19 846.90
  Q 295.96 851.65 291.34 852.29
  Q 289.10 852.60 287.44 851.04
  C 273.62 838.04 263.62 818.16 255.93 801.03
  Q 255.14 799.28 253.22 793.23
  C 251.31 787.19 247.42 781.43 243.61 776.36
  A 2.36 2.35 -46.0 0 1 243.57 773.60
  L 247.62 767.84
  Q 248.26 766.94 247.17 767.11
  L 241.38 768.01
  Q 238.79 768.42 237.25 766.29
  Q 219.84 742.28 203.02 718.97
  C 200.02 714.81 206.78 710.18 209.36 707.47
  Q 209.81 707.00 209.16 707.04
  L 195.52 707.97
  A 0.94 0.94 0.0 0 1 194.69 707.59
  L 164.43 667.56
  Q 163.77 666.69 163.54 665.62
  C 162.62 661.43 165.90 661.16 169.22 660.73
  Q 197.00 657.12 223.45 667.87
  A 1.57 1.56 -82.9 0 1 224.42 669.12
  L 225.00 673.32
  Q 225.11 674.06 225.69 673.58
  L 229.64 670.28
  A 0.94 0.92 -51.4 0 1 230.65 670.16
  Q 255.66 682.45 277.51 699.75
  A 1.01 1.00 23.8 0 1 277.87 700.67
  L 277.12 706.19
  Q 277.00 707.15 277.53 706.35
  Z"
/>
<path fill="#E1D4BC" d="
  M 818.66 672.84
  Q 815.85 671.84 817.32 669.24
  C 820.90 662.92 828.90 671.57 833.61 662.10
  A 1.52 1.51 5.5 0 1 834.55 661.33
  Q 836.23 660.87 836.60 662.49
  Q 837.69 667.25 839.24 673.00
  Q 839.85 675.27 837.51 675.44
  Q 827.80 676.12 818.66 672.84
  Z"
/>
<path fill="#E1D4BC" d="
  M 668.94 697.31
  C 662.42 694.75 663.33 680.23 664.91 674.42
  Q 665.36 672.74 667.10 672.67
  C 668.45 672.62 668.82 674.72 668.45 675.95
  C 666.79 681.61 671.52 686.40 676.21 688.68
  C 680.07 690.55 698.15 697.46 696.44 703.67
  Q 695.87 705.75 693.77 705.23
  Q 680.82 701.99 668.94 697.31
  Z"
/>
<path fill="#E1D4BC" d="
  M 192.53 680.29
  C 189.71 679.36 188.61 678.06 189.43 675.08
  Q 190.01 672.96 192.22 673.05
  Q 204.77 673.58 211.10 684.41
  C 213.56 688.62 208.12 692.62 205.17 688.99
  Q 200.10 682.77 192.53 680.29
  Z"
/>
<path fill="#E1D4BC" d="
  M 874.56 713.48
  A 0.81 0.81 0.0 0 0 873.64 713.31
  C 861.48 718.79 845.23 726.60 836.42 736.57
  A 0.89 0.87 57.4 0 0 836.24 737.42
  Q 838.21 743.52 837.69 749.73
  C 837.33 754.04 831.63 754.08 829.84 751.19
  Q 829.56 750.75 829.13 750.45
  L 824.50 747.28
  A 0.64 0.63 -52.3 0 0 823.67 747.39
  L 791.59 783.46
  Q 789.91 785.35 787.51 784.59
  Q 784.07 783.50 784.17 779.40
  A 1.56 1.55 -24.7 0 1 784.51 778.49
  C 795.90 764.29 808.19 749.11 822.18 737.41
  A 1.04 1.03 36.8 0 1 823.26 737.26
  L 826.54 738.73
  A 0.33 0.32 11.6 0 0 827.00 738.43
  L 827.00 732.66
  A 1.17 1.17 0.0 0 1 827.45 731.74
  C 841.25 721.09 856.33 710.66 872.72 704.49
  Q 874.36 703.88 875.80 704.87
  L 878.50 706.74
  A 0.50 0.49 -62.0 0 0 879.24 706.51
  L 880.95 702.28
  A 1.34 1.34 0.0 0 1 881.51 701.63
  C 897.66 692.21 921.20 691.69 939.60 694.11
  A 0.82 0.81 83.5 0 1 940.27 694.65
  Q 941.37 697.75 939.73 699.97
  Q 925.06 719.82 910.29 739.60
  A 1.08 1.08 0.0 0 1 909.49 740.03
  L 896.01 740.94
  Q 895.42 740.98 895.82 741.42
  C 898.90 744.80 904.54 746.56 900.86 751.82
  Q 884.14 775.72 867.32 799.54
  A 1.21 1.20 10.1 0 1 866.61 800.03
  Q 862.22 801.16 857.80 800.48
  Q 856.88 800.34 857.50 801.03
  L 860.65 804.59
  A 1.47 1.41 -66.9 0 1 861.00 805.51
  C 861.05 807.49 861.34 808.78 860.25 810.57
  C 851.32 825.26 843.95 841.60 830.34 853.01
  C 829.12 854.03 827.46 854.26 825.95 854.59
  Q 823.77 855.07 823.41 852.87
  L 822.89 849.68
  A 1.11 1.11 0.0 0 1 823.20 848.72
  C 835.13 837.02 844.96 825.37 851.69 809.85
  A 1.45 1.44 38.0 0 0 851.51 808.41
  C 848.98 805.07 841.66 797.28 844.48 792.96
  C 846.72 789.51 857.87 791.65 861.50 791.95
  A 0.90 0.89 -69.7 0 0 862.32 791.57
  L 891.59 750.61
  A 0.81 0.81 0.0 0 0 891.48 749.54
  L 879.51 738.45
  A 1.47 1.40 -75.2 0 1 879.07 737.65
  Q 878.37 733.75 881.42 731.54
  A 1.41 1.38 -58.6 0 1 882.41 731.29
  Q 893.41 732.71 904.51 732.97
  A 1.04 1.02 -70.0 0 0 905.34 732.57
  L 928.55 702.61
  Q 928.95 702.10 928.30 702.02
  Q 907.75 699.53 888.47 706.75
  A 0.81 0.80 75.4 0 0 887.96 707.63
  C 888.64 711.95 891.99 720.79 887.19 723.19
  Q 885.15 724.20 883.56 722.58
  L 874.56 713.48
  Z"
/>
<path fill="#E1D4BC" d="
  M 372.03 711.05
  C 365.74 711.82 359.24 703.54 365.76 698.45
  C 379.12 688.01 385.80 709.35 372.03 711.05
  Z"
/>
<path fill="#E1D4BC" d="
  M 239.64 710.22
  L 238.92 702.81
  A 0.97 0.96 69.6 0 1 239.31 701.94
  Q 241.75 700.15 244.26 700.48
  C 247.78 700.94 246.69 703.86 246.75 706.02
  Q 246.94 712.24 247.02 718.48
  A 1.08 1.07 -70.1 0 0 247.40 719.30
  C 261.25 731.22 274.27 743.89 283.88 759.62
  A 0.22 0.21 45.8 0 0 284.24 759.63
  Q 289.10 752.43 290.78 743.88
  C 291.32 741.18 293.95 738.43 296.51 739.65
  Q 299.53 741.09 298.85 744.37
  C 296.88 753.80 294.47 761.84 289.28 768.85
  A 0.72 0.71 45.8 0 0 289.27 769.68
  C 301.08 786.84 313.01 808.81 316.81 829.23
  Q 317.29 831.83 314.89 833.47
  A 1.46 1.44 -59.3 0 1 313.97 833.71
  C 311.61 833.51 310.20 832.55 309.25 830.26
  Q 306.78 824.35 304.19 818.50
  A 0.82 0.82 0.0 0 0 303.52 818.01
  Q 297.71 817.35 292.30 815.13
  A 0.84 0.84 0.0 0 1 291.77 814.32
  L 291.88 809.98
  Q 291.94 807.63 294.27 807.93
  L 301.25 808.83
  Q 302.06 808.94 301.72 808.20
  Q 285.18 772.41 259.40 742.58
  A 0.91 0.90 -25.5 0 0 258.54 742.28
  C 255.08 742.95 240.44 746.63 238.09 745.42
  C 233.55 743.09 235.38 738.52 238.70 736.35
  A 1.23 1.22 33.5 0 1 239.62 736.17
  Q 245.26 737.30 250.62 735.37
  A 0.43 0.42 -32.4 0 0 250.78 734.67
  Q 242.40 726.26 234.00 717.88
  C 230.18 714.07 234.59 709.72 239.23 710.59
  A 0.35 0.35 0.0 0 0 239.64 710.22
  Z"
/>
<path fill="#E1D4BC" d="
  M 898.45 723.16
  C 895.24 724.57 892.49 721.98 892.81 718.77
  C 893.30 713.87 902.64 708.72 907.21 706.48
  Q 912.13 704.07 915.22 707.30
  A 1.42 1.38 -70.0 0 1 915.61 708.17
  C 915.87 711.06 914.78 712.71 911.86 713.56
  C 906.85 715.01 901.45 717.42 899.12 722.50
  A 1.32 1.31 -89.2 0 1 898.45 723.16
  Z"
/>
<path fill="#E1D4BC" d="
  M 681.36 776.65
  C 667.02 764.58 669.93 739.56 686.38 731.19
  C 701.57 723.47 721.77 729.82 733.81 740.72
  C 739.69 746.04 731.85 755.12 727.62 758.45
  Q 726.14 759.62 724.84 758.25
  C 717.68 750.70 709.55 741.91 697.67 746.25
  C 691.38 748.54 688.80 753.98 692.48 760.03
  C 695.42 764.87 704.24 768.54 711.55 771.45
  Q 722.09 775.65 731.72 784.53
  C 745.24 796.99 746.05 821.80 729.16 831.93
  C 716.32 839.62 696.91 837.56 683.82 830.48
  C 668.97 822.43 662.99 802.02 675.16 789.11
  A 1.21 1.20 -32.9 0 1 677.18 789.54
  Q 677.96 791.86 678.74 795.27
  C 681.16 805.84 688.37 812.62 698.96 814.67
  C 706.47 816.14 724.23 815.56 720.81 802.54
  C 719.02 795.75 711.12 791.69 705.09 789.36
  C 696.49 786.04 688.24 782.45 681.36 776.65
  Z"
/>
<path fill="#E1D4BC" d="
  M 599.19 757.90
  Q 589.04 759.65 578.76 760.28
  C 575.26 760.49 573.47 758.74 574.03 755.27
  Q 574.46 752.54 577.20 752.16
  L 600.00 748.97
  A 1.28 1.27 1.9 0 0 601.06 747.99
  L 604.38 732.73
  Q 604.76 730.97 606.56 730.84
  Q 632.52 728.96 658.53 728.54
  A 3.39 3.36 -25.7 0 1 660.71 729.29
  C 662.25 730.53 661.05 731.96 660.53 733.28
  Q 657.31 741.46 652.64 749.01
  A 1.48 1.48 0.0 0 1 650.52 749.44
  C 636.40 739.43 612.85 744.71 616.19 766.01
  C 616.63 768.75 618.99 769.68 621.55 768.72
  C 628.99 765.95 639.43 760.16 647.52 762.98
  Q 649.27 763.58 648.68 765.34
  C 646.50 771.87 644.25 779.39 640.74 785.09
  A 0.72 0.71 21.5 0 1 639.99 785.41
  C 637.72 784.95 635.27 784.07 633.22 783.84
  C 609.15 781.10 606.28 820.29 630.84 817.59
  C 638.48 816.74 644.75 813.07 651.11 809.01
  Q 652.85 807.90 653.83 809.72
  Q 658.77 818.91 662.48 828.88
  Q 663.03 830.36 663.00 831.09
  Q 662.91 833.07 660.94 833.09
  Q 630.07 833.44 599.68 835.91
  C 596.67 836.15 595.69 833.73 595.58 831.04
  C 594.55 805.52 596.06 784.78 599.62 758.31
  A 0.37 0.37 0.0 0 0 599.19 757.90
  Z"
/>
<path fill="#E1D4BC" d="
  M 821.31 793.32
  C 831.89 777.89 843.41 761.99 857.56 751.24
  A 1.00 1.00 0.0 0 0 857.96 750.44
  C 858.00 747.41 857.24 737.10 858.77 735.04
  C 860.37 732.89 863.53 732.62 865.46 734.59
  A 1.13 1.11 -64.6 0 1 865.77 735.48
  L 865.03 743.24
  A 0.56 0.55 7.8 0 0 865.49 743.84
  C 868.29 744.38 874.96 746.17 870.24 750.54
  Q 861.11 758.98 852.30 767.74
  Q 852.03 768.01 852.42 768.07
  L 866.31 769.91
  A 1.63 1.62 -19.3 0 1 867.21 770.34
  Q 870.48 773.48 867.93 777.24
  A 1.03 1.02 15.8 0 1 867.12 777.69
  Q 856.38 778.09 845.79 776.35
  A 1.17 1.15 -64.9 0 0 844.71 776.75
  C 832.56 791.40 820.76 806.36 812.33 823.21
  A 1.17 1.16 5.3 0 1 811.61 823.80
  C 807.21 825.06 803.63 821.97 805.77 817.51
  Q 809.14 810.48 814.62 802.31
  A 0.90 0.88 50.2 0 0 814.69 801.44
  Q 809.42 789.70 805.19 777.54
  A 1.87 1.82 44.2 0 1 805.16 776.46
  Q 805.98 773.55 808.79 772.77
  Q 811.72 771.96 812.90 774.77
  L 820.67 793.26
  Q 820.93 793.88 821.31 793.32
  Z"
/>
<path fill="#E1D4BC" d="
  M 498.56 754.16
  C 512.59 773.94 516.22 797.64 515.06 821.42
  C 514.69 828.99 514.38 834.29 512.22 840.57
  Q 511.18 843.58 508.00 843.79
  L 488.91 845.05
  Q 485.51 845.28 486.97 842.20
  C 491.02 833.72 495.07 825.58 496.38 815.79
  C 498.38 800.85 478.53 805.91 470.68 807.93
  C 448.90 813.54 456.08 831.41 464.19 844.37
  Q 465.34 846.20 463.18 846.24
  L 443.38 846.58
  Q 440.97 846.62 439.67 844.61
  Q 437.58 841.39 436.96 837.66
  C 431.18 802.88 441.27 767.80 468.93 744.49
  A 0.71 0.71 0.0 0 0 469.13 743.71
  L 468.63 742.40
  Q 468.45 741.91 468.47 741.39
  C 468.70 736.51 472.55 736.50 476.27 737.86
  Q 503.15 747.67 531.47 750.91
  A 0.73 0.71 -82.6 0 0 532.26 750.29
  Q 533.15 743.76 535.36 737.56
  A 0.92 0.92 0.0 0 1 536.15 736.95
  L 556.80 735.12
  Q 559.94 734.84 558.82 737.78
  C 550.18 760.38 543.90 782.02 544.16 805.99
  C 544.38 825.82 560.64 827.25 572.70 816.18
  Q 575.97 813.18 579.60 810.58
  A 1.07 1.07 0.0 0 1 581.23 811.09
  Q 585.43 822.64 587.48 834.79
  Q 587.82 836.81 585.78 836.99
  Q 558.34 839.38 530.96 841.90
  C 527.36 842.23 525.85 840.46 525.85 837.06
  C 525.83 826.75 525.19 812.50 526.11 800.68
  Q 527.65 781.02 530.59 760.44
  A 0.93 0.92 7.3 0 0 529.78 759.40
  Q 514.11 757.65 498.82 753.77
  Q 498.16 753.60 498.56 754.16
  Z
  M 460.27 792.61
  A 1.80 1.78 51.9 0 0 461.59 792.78
  Q 474.96 789.31 488.81 787.94
  C 500.00 786.83 485.50 765.95 482.22 762.52
  C 479.91 760.10 477.37 760.59 474.98 762.72
  Q 462.89 773.47 458.86 789.27
  C 458.51 790.68 459.06 791.93 460.27 792.61
  Z"
/>
<path fill="#E1D4BC" d="
  M 565.22 785.77
  C 563.15 782.57 562.45 776.88 565.40 773.81
  C 568.04 771.06 573.11 771.64 575.75 773.99
  C 584.29 781.57 571.07 794.79 565.22 785.77
  Z"
/>
</svg>
